<?xml version="1.0" standalone="no"?><!DOCTYPE svg PUBLIC "-//W3C//DTD SVG 1.1//EN" "http://www.w3.org/Graphics/SVG/1.1/DTD/svg11.dtd"><svg t="1562991346688" class="icon" viewBox="0 0 1028 1024" version="1.1" xmlns="http://www.w3.org/2000/svg" p-id="1470" xmlns:xlink="http://www.w3.org/1999/xlink" width="200.78125" height="200"><defs><style type="text/css"></style></defs><path d="M516.686721 88.063295L78.928099 260.901216l437.904785 172.911001 437.904786-172.911001-437.904786-172.911002z m26.894019-67.965862L981.485526 192.935353a73.081573 73.081573 0 0 1 0 135.931726L543.726903 501.924244a73.081573 73.081573 0 0 1-53.714956 0L52.03408 328.867079a73.081573 73.081573 0 0 1 0-135.931726L489.938866 20.097433a73.081573 73.081573 0 0 1 53.641874 0z" p-id="1471" fill="#bfbfbf"></path><path d="M512.959561 691.863252l462.606357-201.412815a36.540787 36.540787 0 0 1 29.23263 67.015802L527.502794 765.16407a36.540787 36.540787 0 0 1-29.232629 0L23.824593 557.393157a36.540787 36.540787 0 1 1 29.378792-66.94272l459.683094 201.412815z" p-id="1472" fill="#bfbfbf"></path><path d="M975.639 746.162861a36.540787 36.540787 0 0 1 29.159548 67.088884L527.502794 1020.949575a36.540787 36.540787 0 0 1-29.232629 0L23.824593 813.178663a36.540787 36.540787 0 1 1 29.378792-66.942721l459.683094 201.412815 462.679439-201.412815z" p-id="1473" fill="#bfbfbf"></path></svg>