<?xml version="1.0" standalone="no"?><!DOCTYPE svg PUBLIC "-//W3C//DTD SVG 1.1//EN" "http://www.w3.org/Graphics/SVG/1.1/DTD/svg11.dtd"><svg t="1560519994924" class="icon" style="" viewBox="0 0 1028 1024" version="1.1" xmlns="http://www.w3.org/2000/svg" p-id="4095" xmlns:xlink="http://www.w3.org/1999/xlink" width="200.78125" height="200"><defs><style type="text/css"></style></defs><path d="M238.933333 763.733333c0-17.066667-12.8-34.133333-34.133333-34.133333h-170.666667c-17.066667 0-34.133333 12.8-34.133333 34.133333 0 17.066667 12.8 34.133333 34.133333 34.133334h174.933334c17.066667-4.266667 29.866667-17.066667 29.866666-34.133334z m-204.8-213.333333h174.933334c17.066667 0 34.133333-12.8 34.133333-29.866667 0-17.066667-12.8-34.133333-34.133333-34.133333H34.133333c-17.066667 0-34.133333 12.8-34.133333 34.133333 0 17.066667 12.8 29.866667 34.133333 29.866667zM989.866667 0H34.133333C12.8 0 0 12.8 0 34.133333c0 17.066667 12.8 34.133333 34.133333 34.133334h960c17.066667 0 34.133333-12.8 34.133334-34.133334-4.266667-21.333333-17.066667-34.133333-38.4-34.133333z m-320 153.6c-196.266667 0-349.866667 157.866667-349.866667 349.866667 0 81.066667 25.6 153.6 72.533333 209.066666l-251.733333 251.733334c-12.8 17.066667-17.066667 38.4-4.266667 51.2 12.8 12.8 34.133333 8.533333 51.2-4.266667l247.466667-251.733333c64 55.466667 145.066667 89.6 234.666667 89.6 196.266667 0 354.133333-157.866667 354.133333-349.866667 0-192-157.866667-345.6-354.133333-345.6z m0 597.333333c-140.8 0-251.733333-110.933333-251.733334-251.733333 0-140.8 115.2-251.733333 251.733334-251.733333 140.8 0 251.733333 110.933333 251.733333 251.733333 4.266667 140.8-110.933333 251.733333-251.733333 251.733333zM34.133333 307.2h273.066667c17.066667 0 34.133333-12.8 34.133333-34.133333 0-17.066667-12.8-34.133333-34.133333-34.133334H34.133333c-21.333333 4.266667-34.133333 17.066667-34.133333 34.133334 0 21.333333 12.8 34.133333 34.133333 34.133333z" p-id="4096" fill="#ffffff"></path></svg>