<?xml version="1.0" standalone="no"?><!DOCTYPE svg PUBLIC "-//W3C//DTD SVG 1.1//EN" "http://www.w3.org/Graphics/SVG/1.1/DTD/svg11.dtd"><svg t="1566882548046" class="icon" viewBox="0 0 1024 1024" version="1.1" xmlns="http://www.w3.org/2000/svg" p-id="752" xmlns:xlink="http://www.w3.org/1999/xlink" width="200" height="200"><defs><style type="text/css"></style></defs><path d="M137.6 102.16h97.69v830.83H137.6z" fill="#bfbfbf" p-id="753"></path><path d="M203.29 70.15v159H97.21v82.42h106.08V464.6H97.21V547h106.08v153.1H97.21v82.44h106.08v153.21h765.56V70.15z m701.56 801.6H267.29v-737.6h637.56z" p-id="754" fill="#bfbfbf"></path><path d="M412 618.75l174.06-57.69 174 57.69v113.56h64V572.56l-168.18-55.78 68.31-39.66V317l-138.12-80.22L447.91 317v160.12l68.33 39.66L348 572.56v159.75h64z m99.9-178.5v-86.41l74.16-43.06 74.12 43.06v86.41l-74.12 43.06z" p-id="755" fill="#bfbfbf"></path><path d="M562.56 615.66h47V732.3h-47z" fill="#bfbfbf" p-id="756"></path></svg>