<?xml version="1.0" standalone="no"?><!DOCTYPE svg PUBLIC "-//W3C//DTD SVG 1.1//EN" "http://www.w3.org/Graphics/SVG/1.1/DTD/svg11.dtd"><svg t="1560389947937" class="icon" style="" viewBox="0 0 1024 1024" version="1.1" xmlns="http://www.w3.org/2000/svg" p-id="2479" xmlns:xlink="http://www.w3.org/1999/xlink" width="200" height="200"><defs><style type="text/css"></style></defs><path d="M512 64l448 220.8L512 512a18.56 18.56 0 0 1-16 0l-422.4-209.92a17.92 17.92 0 0 1 0-32L491.52 64A18.56 18.56 0 0 1 512 64z" p-id="2480" fill="#bfcbd9"></path><path d="M519.68 612.48l266.88-157.44v342.4l-266.88 156.8a41.6 41.6 0 0 1-42.24 0L211.2 797.44V455.68l266.24 157.44a39.68 39.68 0 0 0 42.24-0.64z m384-325.76H960v309.12a28.8 28.8 0 0 1-57.6 0z" p-id="2481" fill="#bfcbd9"></path></svg>