<?xml version="1.0" standalone="no"?><!DOCTYPE svg PUBLIC "-//W3C//DTD SVG 1.1//EN" "http://www.w3.org/Graphics/SVG/1.1/DTD/svg11.dtd"><svg t="1563702106251" class="icon" viewBox="0 0 1024 1024" version="1.1" xmlns="http://www.w3.org/2000/svg" p-id="2978" xmlns:xlink="http://www.w3.org/1999/xlink" width="200" height="200"><defs><style type="text/css"></style></defs><path d="M912.384 417.28c19.456-10.88 17.792-15.488 17.792-34.944 0-19.456-11.136-24.064-30.592-35.072L538.112 144.512c-26.496-14.848-42.88-14.848-69.376 0L107.264 347.264c-19.456 10.88-30.592 15.488-30.592 35.072 0 19.456 23.936 36.864 43.392 47.744l75.392 43.904c-0.128 0.896-0.256 1.664-0.256 2.56v282.24c0 2.048 0.256 3.968 0.512 5.888 4.864 53.76 158.464 139.008 307.84 139.008 151.04 0 303.744-77.696 307.968-142.08 0-0.896 0.128-1.792 0.128-2.816V476.544c0-0.896-0.256-1.664-0.256-2.56l100.992-56.704zM488.96 167.68c1.792-1.024 7.04-2.816 14.464-2.816 6.528 0 12.032 1.408 14.464 2.816l382.464 214.656-382.464 214.528c-1.792 1.024-7.04 2.816-14.464 2.816-6.528 0-12.032-1.408-14.464-2.816L106.368 382.336 488.96 167.68z m294.272 589.312v1.408c-0.256 26.24-120.192 112.768-266.88 112.768s-291.2-84.48-291.456-110.72c0-1.28-0.128-2.56-0.256-3.84V485.376l204.672 119.296c39.936 22.784 56.704 26.88 74.112 26.88 17.408 0 34.176-4.096 47.488-11.52l232.32-136.704v273.664z m-12.8 0" fill="#bfbfbf" p-id="2979"></path><path d="M907.52 468.096c-13.952 0-25.216 11.264-25.216 25.216v200.064c0 13.952 11.264 25.216 25.216 25.216 13.952 0 25.216-11.264 25.216-25.216V493.312c0-13.952-11.264-25.216-25.216-25.216z m0 0" fill="#bfbfbf" p-id="2980"></path><path d="M489.984 167.68L107.392 382.336l382.464 214.656c2.432 1.408 7.936 2.816 14.464 2.816 7.552 0 12.672-1.792 14.464-2.816L901.12 382.464 517.632 167.04c-2.816-1.152-7.68-2.176-13.184-2.176-7.552 0-12.672 1.792-14.464 2.816z m0 0" fill="#bfbfbf" p-id="2981"></path></svg>