<?xml version="1.0" standalone="no"?><!DOCTYPE svg PUBLIC "-//W3C//DTD SVG 1.1//EN" "http://www.w3.org/Graphics/SVG/1.1/DTD/svg11.dtd"><svg t="1564987938715" class="icon" viewBox="0 0 1024 1024" version="1.1" xmlns="http://www.w3.org/2000/svg" p-id="45352" xmlns:xlink="http://www.w3.org/1999/xlink" width="200" height="200"><defs><style type="text/css"></style></defs><path d="M673.69971 68.129563H125.660503c-39.91322 0-56.799582 16.886362-56.799581 51.682502l-1.023416 857.110804c0 19.444902-27.120521 46.565423-41.448344 47.077131-14.327822 0-26.097105-11.769283-26.097105-26.097105L1.315473 124.929145C1.315473 56.36028 57.091639 0.584115 125.660503 0.584115h548.039207m220.034415 513.754774l-0.511708 484.075714c-1.023416 12.792699-14.83953 23.026857-31.725892 23.026857s-45.542007-20.468318-47.077131-33.261016l0.511708-471.794723" p-id="45353" fill="#ff558f"></path><path d="M566.241042 1023.488292c-7.163911 0-14.327822-3.070248-18.933194-8.699035-32.749308-39.401512-66.522033-59.358121-100.806465-58.334705-55.776166 1.023416-98.247925 55.776166-98.759633 56.287873-4.605371 5.628787-11.257575 9.210743-18.933193 9.722451l-36.842972 1.023416c-7.675619 0-15.351238-3.070248-19.95661-9.210743-27.632229-35.307848-59.869829-54.241042-95.177677-56.799582-70.615696-4.093664-118.716243 41.960051-119.227951 42.47176-9.722451 8.187327-39.91322 23.026857-48.612255 13.816114-9.210743-9.210743-9.722451-38.889804-1.023416-48.612254 5.628787-5.628787 118.204535-75.221068 172.445577-72.15082 46.053715 2.55854 87.502058 25.073689 122.809906 65.498616l13.816115-0.511708c17.909778-19.95661 65.498617-64.986909 128.438693-66.522032 46.565423-1.023416 91.595722 20.980026 132.02065 67.03374l19.956609-0.511708c51.682502-48.100547 118.716243-136.114313 274.275458 6.140496 9.722451 9.210743 10.745867 39.91322 1.535124 49.63567-9.210743 9.722451-24.561981 10.745867-34.796141 1.535124-47.077131-43.495175-97.224509-57.31129-147.371887-40.936635-24.561981 8.187327-47.077131 21.491734-65.498617 39.401511-4.605371 4.605371-10.745867 7.163911-17.39807 7.163911l-41.960051 2.55854c0.511708 0 0 0 0 0zM629.692827 301.468385H250.005533c-9.210743 0.511708-17.909778-4.093664-23.026857-11.769283-4.605371-7.675619-4.605371-17.909778 0-25.585397s13.816114-12.280991 23.026857-11.769283H629.692827c9.210743-0.511708 17.909778 4.093664 23.026857 11.769283 4.605371 7.675619 4.605371 17.909778 0 25.585397-5.117079 8.187327-13.816114 12.792699-23.026857 11.769283z m-57.31129 176.027532H185.018625c-9.210743 0.511708-17.39807-3.581956-22.51515-11.257575-4.605371-7.675619-4.605371-17.39807 0-25.073689 4.605371-7.675619 13.304407-12.280991 22.51515-11.257574h406.807814l-19.444902 47.588838z m-70.103988 176.53924H242.329914c-9.210743 0.511708-17.39807-3.581956-22.515149-11.257574-4.605371-7.675619-4.605371-17.39807 0-25.073689 4.605371-7.675619 13.304407-12.280991 22.515149-11.257575H527.351238l-25.073689 47.588838z m0 0" p-id="45354" fill="#ff558f"></path><path d="M926.483434 213.966327l-40.424928-16.374654 15.862946-39.91322c8.187327-20.468318 7.675619-42.983467-0.511708-62.940077-12.792699-30.702477-42.983467-50.147378-75.732775-50.147378-33.261016 0.511708-62.428369 20.980026-74.70936 51.682502l-14.83953 37.35468-40.424928-16.374654 14.839531-37.866388c12.280991-31.214185 36.331264-55.776166 66.522032-69.080572 30.702477-13.304407 64.986909-13.816114 96.201094-1.023416C937.741008 35.891963 968.443485 109.066198 942.858088 174.053107l-16.374654 39.91322z m-403.225859 636.56468c-3.581956 0-7.163911-0.511708-10.234159-1.535123l-2.55854-1.023416c-14.83953-6.140495-60.893245-39.401512-32.749308-211.847089l0.511708-2.558539L680.863621 174.564815l222.592955 91.084014-211.33538 464.119104-2.55854 2.55854c-27.120521 27.632229-118.716243 118.204535-166.305081 118.204534z m-5.628788-205.194885c-19.444902 120.763074 1.535124 157.094338 8.699035 165.793374 22.003442-4.605371 83.408395-55.264458 130.485526-103.365005L848.703826 286.628855l-146.348471-59.86983-184.726568 418.577097z m0 0M289.918753 0.584115h156.58263v66.522032H289.918753z" p-id="45355" fill="#ff558f"></path></svg>