<?xml version="1.0" standalone="no"?><!DOCTYPE svg PUBLIC "-//W3C//DTD SVG 1.1//EN" "http://www.w3.org/Graphics/SVG/1.1/DTD/svg11.dtd"><svg t="1563702053369" class="icon" viewBox="0 0 1024 1024" version="1.1" xmlns="http://www.w3.org/2000/svg" p-id="2011" xmlns:xlink="http://www.w3.org/1999/xlink" width="200" height="200"><defs><style type="text/css"></style></defs><path d="M0.904 156.551c0 55.929 74.15 107.58 194.5 135.53 120.32 28.01 268.588 28.01 388.908 0 120.35-27.95 194.47-79.601 194.47-135.53C778.782 70.114 604.672 0 389.872 0 175.045 0 0.905 70.084 0.905 156.551z m532.118 340.691C588.8 454.234 649.396 419.6 755.38 415.924c18.221-15.209 24.124-30.358 25.48-53.91V219.979c-5.421 84.33-177.092 152.486-388.94 152.486C180.104 372.465 0.965 302.29 0.965 215.913V350.84c0 87.07 174.38 157.214 388.909 157.214 56.47 0.211 96.436-1.747 143.149-10.812zM0.904 404.842v134.956c0 86.378 174.38 156.552 388.908 156.552h28.371c3.494-47.436 29.154-97.4 62.314-138.09-33.25 3.584-57.224 5.813-90.654 5.813C175.285 564.103 0.903 493.93 0.903 404.841zM389.39 756.614C173.899 756.615 0 689.242 0 600.275V735.05c0 86.287 174.592 156.37 389.42 156.37h53.64c-22.287-39.243-29.093-82.823-29.093-134.806H389.42zM945.362 565.79a268.228 268.228 0 0 0-379.422 0 268.438 268.438 0 0 0 0 379.572 268.228 268.228 0 0 0 379.452 0.03 268.499 268.499 0 0 0 0-379.602zM816.61 822.753c-27.226 27.227-48.79 55.658-62.735 81.107-13.944-25.45-35.538-53.91-62.735-81.107-27.196-27.226-55.657-48.79-81.076-62.765 25.419-13.944 53.88-35.539 81.076-62.765 27.227-27.226 48.79-55.657 62.735-81.107 13.945 25.45 35.54 53.91 62.735 81.107 27.227 27.226 55.658 48.79 81.107 62.765-25.42 13.945-53.91 35.54-81.107 62.765z" fill="#bfbfbf" p-id="2012"></path></svg>