<?xml version="1.0" standalone="no"?><!DOCTYPE svg PUBLIC "-//W3C//DTD SVG 1.1//EN" "http://www.w3.org/Graphics/SVG/1.1/DTD/svg11.dtd"><svg t="1564977864805" class="icon" viewBox="0 0 1024 1024" version="1.1" xmlns="http://www.w3.org/2000/svg" p-id="43336" xmlns:xlink="http://www.w3.org/1999/xlink" width="200" height="200"><defs><style type="text/css"></style></defs><path d="M802.133333 583.68c0-18.773333-6.826667-34.133333-18.773333-47.786667L416.426667 168.96c-13.653333-13.653333-30.72-23.893333-52.906667-34.133333-22.186667-10.24-42.666667-13.653333-59.733333-13.653334H88.746667c-18.773333 0-34.133333 6.826667-46.08 20.48-11.946667 13.653333-18.773333 29.013333-18.773334 46.08v213.333334c0 18.773333 5.12 39.253333 13.653334 59.733333 10.24 22.186667 20.48 39.253333 34.133333 52.906667l366.933333 366.933333c13.653333 13.653333 29.013333 18.773333 46.08 18.773333s34.133333-6.826667 47.786667-18.773333L785.066667 628.053333c10.24-10.24 17.066667-27.306667 17.066666-44.373333zM235.52 334.506667c-13.653333 13.653333-29.013333 18.773333-46.08 18.773333s-34.133333-6.826667-46.08-18.773333-18.773333-29.013333-18.773333-46.08 6.826667-34.133333 18.773333-46.08c13.653333-13.653333 29.013333-18.773333 46.08-18.773334s34.133333 6.826667 46.08 18.773334c13.653333 13.653333 18.773333 29.013333 18.773333 46.08 0 17.066667-6.826667 32.426667-18.773333 46.08z m745.813333 201.386666L612.693333 168.96c-13.653333-13.653333-30.72-23.893333-52.906666-34.133333-22.186667-10.24-42.666667-13.653333-59.733334-13.653334h-116.053333c18.773333 0 39.253333 5.12 59.733333 13.653334 22.186667 10.24 39.253333 20.48 52.906667 34.133333l366.933333 366.933333c13.653333 13.653333 18.773333 29.013333 18.773334 47.786667s-6.826667 34.133333-18.773334 46.08l-238.933333 242.346667c10.24 10.24 20.48 18.773333 27.306667 23.893333 8.533333 5.12 18.773333 6.826667 30.72 6.826667 18.773333 0 34.133333-6.826667 47.786666-18.773334L983.04 631.466667c13.653333-13.653333 18.773333-29.013333 18.773333-46.08s-8.533333-35.84-20.48-49.493334z" p-id="43337" fill="#51ccc4"></path></svg>