<?xml version="1.0" standalone="no"?><!DOCTYPE svg PUBLIC "-//W3C//DTD SVG 1.1//EN" "http://www.w3.org/Graphics/SVG/1.1/DTD/svg11.dtd"><svg t="1562569339642" class="icon" viewBox="0 0 1024 1024" version="1.1" xmlns="http://www.w3.org/2000/svg" p-id="3262" xmlns:xlink="http://www.w3.org/1999/xlink" width="200" height="200"><defs><style type="text/css"></style></defs><path d="M146.54945703 689.47582976c13.73907803 0 22.8657114-9.12663337 22.8657114-22.86571139v-159.86011837h319.72023671v159.86011837c0 13.73907803 9.12663337 22.8657114 22.86571139 22.86571139s22.8657114-9.12663337 22.86571143-22.86571139v-159.86011837h319.7202367v159.86011837c0 13.73907803 9.12663337 22.8657114 22.86571141 22.86571139s22.8657114-9.12663337 22.8657114-22.86571139v-182.72471323c0-13.73907803-9.12663337-22.8657114-22.8657114-22.8657114h-342.58483158v-114.1298121c0-13.73907803-9.12663337-22.8657114-22.8657114-22.86571139s-22.8657114 9.12663337-22.86571141 22.86571139v114.228068h-342.58483156c-13.73907803 0-22.8657114 9.12663337-22.86571139 22.8657114v182.72582976c0.09825591 13.64082211 9.22488926 22.7674555 22.86571139 22.76745552zM466.36794964 278.39323644h91.36235662c50.24449498 0 91.36235661-41.11786161 91.36235661-91.36235661v-91.3623566c0-50.24449498-41.11786161-91.36235661-91.36235661-91.36235659h-91.36235662c-50.24449498 0-91.36235661 41.11786161-91.3623566 91.36235659v91.3623566c0 50.24449498 41.11786161 91.36235661 91.3623566 91.36235661zM420.63764339 95.66740669c0-25.12224751 20.50980287-45.63205036 45.63205035-45.63205036h91.36235662c25.12224751 0 45.63205036 20.50980287 45.63205034 45.63205036v91.36235661c0 25.12224751-20.50980287 45.63205036-45.63205034 45.63205036h-91.36235662c-25.12224751 0-45.63205036-20.50980287-45.63205035-45.63205036v-91.36235661zM557.63205036 735.10676357h-91.36235662c-50.24449498 0-91.36235661 41.11786161-91.36235661 91.3623566v91.36235661c0 50.24449498 41.11786161 91.36235661 91.36235661 91.36235659h91.36235662c50.24449498 0 91.36235661-41.11786161 91.3623566-91.36235659v-91.36235661c0-50.24449498-41.11786161-91.36235661-91.3623566-91.3623566zM603.36235661 917.83259331c0 25.12224751-20.50980287 45.63205036-45.63205035 45.63205036h-91.36235662c-25.12224751 0-45.63205036-20.50980287-45.63205034-45.63205036v-91.3623566c0-25.12224751 20.50980287-45.63205036 45.63205034-45.63205036h91.36235662c25.12224751 0 45.63205036 20.50980287 45.63205035 45.63205036v91.3623566zM923.08259331 735.10676357h-91.3623566c-50.24449498 0-91.36235661 41.11786161-91.3623566 91.3623566v91.36235661c0 50.24449498 41.11786161 91.36235661 91.3623566 91.36235659h91.3623566c50.24449498 0 91.36235661-41.11786161 91.36235661-91.36235659v-91.36235661c0-50.24449498-41.11786161-91.36235661-91.36235661-91.3623566zM968.81289959 917.83259331c0 25.12224751-20.50980287 45.63205036-45.63205038 45.63205036h-91.3623566c-25.12224751 0-45.63205036-20.50980287-45.63205035-45.63205036v-91.3623566c0-25.12224751 20.50980287-45.63205036 45.63205035-45.63205036h91.3623566c25.12224751 0 45.63205036 20.50980287 45.63205038 45.63205036v91.3623566zM192.27976329 735.10676357h-91.3623566c-50.24449498 0-91.36235661 41.11786161-91.36235661 91.3623566v91.36235661c0 50.24449498 41.11786161 91.36235661 91.36235661 91.36235659h91.3623566c50.24449498 0 91.36235661-41.11786161 91.3623566-91.36235659v-91.36235661c0-50.24449498-41.11786161-91.36235661-91.3623566-91.3623566zM237.91181365 917.83259331c0 25.12224751-20.50980287 45.63205036-45.63205036 45.63205036h-91.3623566c-25.12224751 0-45.63205036-20.50980287-45.63205036-45.63205036v-91.3623566c0-25.12224751 20.50980287-45.63205036 45.63205036-45.63205036h91.3623566c25.12224751 0 45.63205036 20.50980287 45.63205036 45.63205036v91.3623566z" p-id="3263" fill="#bfbfbf"></path></svg>