<?xml version="1.0" standalone="no"?><!DOCTYPE svg PUBLIC "-//W3C//DTD SVG 1.1//EN" "http://www.w3.org/Graphics/SVG/1.1/DTD/svg11.dtd"><svg t="1562991460689" class="icon" viewBox="0 0 1024 1024" version="1.1" xmlns="http://www.w3.org/2000/svg" p-id="2259" xmlns:xlink="http://www.w3.org/1999/xlink" width="200" height="200"><defs><style type="text/css"></style></defs><path d="M354.133 742.4V469.333c0-34.133-29.866-59.733-64-59.733h-81.066c-34.134 0-64 25.6-64 59.733v384h209.066V742.4zM588.8 371.2V102.4c0-34.133-25.6-59.733-55.467-59.733h-68.266c-34.134 0-55.467 25.6-55.467 59.733v746.667h183.467L588.8 371.2z m260.267 196.267V307.2c0-29.867-29.867-59.733-64-59.733H704c-34.133 0-64 25.6-64 59.733v541.867h209.067v-281.6z m-768 413.866h861.866c21.334 0 38.4-17.066 38.4-38.4s-17.066-38.4-38.4-38.4H81.067c-21.334 0-38.4 17.067-38.4 38.4s17.066 38.4 38.4 38.4z" p-id="2260" fill="#bfbfbf"></path></svg>