<?xml version="1.0" standalone="no"?><!DOCTYPE svg PUBLIC "-//W3C//DTD SVG 1.1//EN" "http://www.w3.org/Graphics/SVG/1.1/DTD/svg11.dtd"><svg t="1563702128328" class="icon" viewBox="0 0 1027 1024" version="1.1" xmlns="http://www.w3.org/2000/svg" p-id="3829" xmlns:xlink="http://www.w3.org/1999/xlink" width="200.5859375" height="200"><defs><style type="text/css"></style></defs><path d="M807.857783 582.6498c0 165.61531-134.24154 299.870689-299.870689 299.870689s-299.898367-134.24154-299.898367-299.870689c0-82.800735 22.322846-157.477781 76.586874-211.74181a179.911342 179.911342 0 0 0 23.526868-29.450103c8.09601-12.829063 6.919667-87.077089 37.712185-144.925505 12.67683-23.859012 34.944318-45.559087 55.357336-55.357336s39.013082-7.791545 40.134068-7.0719 21.091145 2.034382 36.522002 18.863013c12.275489 13.368797 17.991134 48.562223 10.130393 67.439074-4.760731 11.403611-25.934912 36.715753-54.900638 51.551519-29.477781 15.098713-66.70559 19.873284-80.115904 29.463942-22.336685 15.956752-36.120662 33.076008-36.688075 46.707752-1.342415 33.421992 12.137096 101.982052 34.280031 142.35139 15.223267 27.678668 35.151908 39.372905 48.437668 52.478754s41.241215 35.345659 86.011461 48.313115 149.976862 20.482214 165.864418-5.466537c3.94421-6.490648 19.001406-23.291599-13.839334-51.094821-16.607201-14.088442-77.7217-35.31798-93.08336-50.665802-23.402314-23.388474-31.650557-36.522002-40.576928-63.660936s-3.861174-61.820305 4.636177-76.586874c23.6791-41.130501 91.339604-54.194832 130.200454-41.241215 117.136123 39.040761 169.670235 149.575522 169.670235 280.080441z" p-id="3830" fill="#bfbfbf"></path><path d="M508.6929 1019.543734C227.366919 1019.156233-0.387001 790.765704 0.000501 509.439723S228.847727 0.332144 510.118351 0.747324s509.079901 228.77803 508.67856 510.104011a509.398205 509.398205 0 0 1-510.104011 508.692399z m0-987.934695c-262.947346 0-476.972646 213.969943-476.972646 476.972646s213.969943 476.917288 476.972646 476.917288 476.972646-213.969943 476.972646-476.972646S771.695603 31.553681 508.6929 31.553681z" p-id="3831" fill="#bfbfbf"></path></svg>