<?xml version="1.0" standalone="no"?><!DOCTYPE svg PUBLIC "-//W3C//DTD SVG 1.1//EN" "http://www.w3.org/Graphics/SVG/1.1/DTD/svg11.dtd"><svg t="1564294378342" class="icon" viewBox="0 0 1024 1024" version="1.1" xmlns="http://www.w3.org/2000/svg" p-id="4043" width="200" height="200" xmlns:xlink="http://www.w3.org/1999/xlink"><defs><style type="text/css"></style></defs><path d="M987.428571 702.171429H731.428571c-95.085714 0-175.542857 80.457143-175.542857 175.542857 0 51.2 21.942857 102.4 65.828572 131.657143-36.571429 7.314286-73.142857 14.628571-109.714286 14.628571-285.257143 0-512-226.742857-512-512s226.742857-512 512-512 512 226.742857 512 512c0 65.828571-14.628571 131.657143-36.571429 190.171429z m-58.514285 102.4c-43.885714 58.514286-95.085714 109.714286-153.6 146.285714H731.428571c-43.885714 0-73.142857-29.257143-73.142857-73.142857s29.257143-73.142857 73.142857-73.142857h197.485715zM570.514286 526.628571h117.028571c29.257143 0 51.2-21.942857 51.2-51.2 0-29.257143-21.942857-51.2-51.2-51.2h-65.828571l73.142857-73.142857c21.942857-21.942857 21.942857-51.2 0-73.142857-21.942857-21.942857-51.2-21.942857-73.142857 0L512 387.657143 409.6 277.942857c-21.942857-21.942857-51.2-21.942857-73.142857 0s-21.942857 51.2 0 73.142857l73.142857 73.142857h-58.514286c-29.257143 0-51.2 21.942857-51.2 51.2 0 29.257143 21.942857 51.2 51.2 51.2h117.028572v43.885715H351.085714c-29.257143 0-51.2 21.942857-51.2 51.2 0 29.257143 21.942857 51.2 51.2 51.2h117.028572v65.828571c0 29.257143 21.942857 51.2 51.2 51.2s51.2-21.942857 51.2-51.2v-65.828571h117.028571c29.257143 0 51.2-21.942857 51.2-51.2 0-29.257143-21.942857-51.2-51.2-51.2H570.514286v-43.885715z" p-id="4044" fill="#ffffff"></path><path d="M731.428571 804.571429h219.428572c43.885714 0 73.142857 29.257143 73.142857 73.142857s-29.257143 73.142857-73.142857 73.142857h-219.428572c-43.885714 0-73.142857-29.257143-73.142857-73.142857s29.257143-73.142857 73.142857-73.142857z" p-id="4045" fill="#ffffff"></path></svg>