<?xml version="1.0" standalone="no"?><!DOCTYPE svg PUBLIC "-//W3C//DTD SVG 1.1//EN" "http://www.w3.org/Graphics/SVG/1.1/DTD/svg11.dtd"><svg t="1563702086605" class="icon" viewBox="0 0 1024 1024" version="1.1" xmlns="http://www.w3.org/2000/svg" p-id="2764" xmlns:xlink="http://www.w3.org/1999/xlink" width="200" height="200"><defs><style type="text/css"></style></defs><path d="M1016.689014 421.171177l-72.061859-201.849605 72.061859-175.419658S1023.665001 0 998.066051 11.008978c-25.40795 10.942979-88.381827 146.939713-88.381828 146.939714l-35.006931-10.943979L909.684223 9.215982h-28.030945l-35.006932 89.469825-9.215982 21.949957-270.072472-67.964867s-37.182927-21.951957-76.73285 4.414992c-39.550923 26.239949-446.899127 451.699118-470.194082 517.552989-23.295955 65.725872-16.255968 52.606897 0 94.332815 16.319968 41.599919 398.068223 320.119375 435.25115 344.246328 37.309927 24.254953 83.900836 0 83.900836 0s430.579159-515.440993 463.154096-528.559968c14.143972-5.631989 18.495964-18.239964 19.199962-30.59194 0.767999-16.574968-5.24799-32.894936-5.24799-32.894936z m-61.50188 41.599919c0 15.35897-412.019195 467.057088-423.732172 491.313041-11.646977 23.998953-65.213873 0-65.213873 0S77.452849 675.435681 68.172867 646.956736c-9.279982-28.479944 0-61.50188 0-61.501879s278.776456-317.55938 418.612182-461.682099c9.726981-9.983981 8.382984-20.67196 61.50188-23.167954 89.021826 16.831967 308.150398 76.66985 315.959383 74.813853 3.070994-0.639999 11.838977 18.239964 22.718956 44.926913l-71.485861 45.502911c-19.391962-25.215951-51.902899-40.382921-87.10183-37.439927-52.989897 4.608991-92.15682 48.959904-87.293829 98.941807 4.799991 50.046902 51.838899 86.90983 104.893795 82.365839 53.181896-4.607991 92.28482-48.894905 87.484829-99.005807-0.703999-6.206988-1.983996-12.094976-3.775992-17.919965l72.253858-34.877932c20.41596 51.709899 43.070916 110.716784 53.246896 123.707759 18.622964 24.191953 0 65.789872 0 81.149841zM783.735469 319.157377c0 24.190953-20.798959 43.902914-46.653909 43.902914-25.53595 0-46.462909-19.711962-46.462909-43.902914 0-24.254953 20.862959-43.902914 46.462909-43.902915 25.85495 0.064 46.653909 19.647962 46.653909 43.902915z" fill="#bfbfbf" p-id="2765"></path></svg>