<?xml version="1.0" standalone="no"?><!DOCTYPE svg PUBLIC "-//W3C//DTD SVG 1.1//EN" "http://www.w3.org/Graphics/SVG/1.1/DTD/svg11.dtd"><svg t="1560390225630" class="icon" style="" viewBox="0 0 1024 1024" version="1.1" xmlns="http://www.w3.org/2000/svg" p-id="3496" xmlns:xlink="http://www.w3.org/1999/xlink" width="200" height="200"><defs><style type="text/css"></style></defs><path d="M491.776 51.2c4.544 0.768 9.088 1.664 13.696 2.24 25.152 3.072 49.216 10.624 72.512 21.696a261.76 261.76 0 0 1 106.752 94.656c19.84 30.464 33.344 64.256 40.96 100.928 2.368 11.456 3.2 23.36 4.416 35.072 0.704 7.104 0.896 14.336 1.088 21.504a287.36 287.36 0 0 1-14.016 94.464 282.752 282.752 0 0 1-41.152 81.152c-1.728 2.304-3.328 4.736-5.376 7.68a395.136 395.136 0 0 1 124.672 142.144c-19.584 0-38.016 0.064-56.448-0.128-1.152 0-2.624-1.28-3.456-2.368-11.84-15.488-22.784-31.936-35.52-46.4a282.24 282.24 0 0 0-60.352-50.624c-4.544-2.944-7.168-3.008-11.712 0.64-22.912 18.176-47.68 32.64-74.688 41.792-15.744 5.312-31.616 10.176-48.064 11.264-15.936 1.088-31.936 2.816-47.872 2.048a229.632 229.632 0 0 1-61.824-12.096 250.24 250.24 0 0 1-74.816-40.256c-0.128-0.128-0.384 0-0.512-0.128-9.728-7.36-9.664-7.232-19.584-0.192-18.24 12.928-35.584 26.88-51.52 43.392a323.072 323.072 0 0 0-51.712 71.872 279.872 279.872 0 0 0-26.88 69.76c-3.904 16.768-6.656 33.92-9.216 51.008-3.904 25.856-2.24 52.032-1.92 78.016a37.376 37.376 0 0 0 30.144 35.52c7.232 1.088 14.592 1.216 21.824 1.216l325.12 0.064h6.848a84.544 84.544 0 0 0-6.464 60.736h-6.784c-117.824 0-235.584 0.128-353.408-0.128a69.632 69.632 0 0 1-53.952-25.088 76.48 76.48 0 0 1-19.328-44.672c-0.064-0.448-0.576-0.768-0.896-1.152v-69.888c0.32-0.96 0.896-1.92 0.96-2.88 0.768-10.176 0.832-20.416 2.24-30.464 3.136-22.72 7.552-45.056 14.016-66.944 8.192-27.648 18.816-54.016 32.256-78.912a376.192 376.192 0 0 1 71.168-94.4c10.688-10.24 22.016-19.712 33.28-29.312 5.696-4.8 11.776-9.088 17.728-13.632-4.032-5.44-7.936-10.176-11.264-15.36a316.16 316.16 0 0 1-32.192-63.872 297.728 297.728 0 0 1-13.312-151.104c3.904-22.272 9.856-43.776 18.432-64.32 9.088-21.824 20.8-41.792 34.496-60.544a258.176 258.176 0 0 1 96.32-80.128 234.112 234.112 0 0 1 72.448-21.696c4.608-0.576 9.152-1.472 13.696-2.24l39.168 0.064z m183.616 278.72c-0.96-10.496-1.6-21.056-2.816-31.488a205.504 205.504 0 0 0-14.208-54.08c-12.16-29.888-28.672-56.32-51.84-76.864a280.768 280.768 0 0 0-37.696-28.928 184.448 184.448 0 0 0-83.456-26.496 168.96 168.96 0 0 0-51.648 3.712 192 192 0 0 0-62.4 25.472 211.008 211.008 0 0 0-53.248 47.872 231.296 231.296 0 0 0-33.984 60.736 222.656 222.656 0 0 0-14.08 66.24c-1.408 24 0.896 47.68 6.848 71.04 8.64 34.112 23.936 63.808 45.376 89.536 18.432 22.08 40.32 38.976 65.088 51.456a196.48 196.48 0 0 0 73.792 20.224c19.648 1.536 39.296-0.704 58.432-5.76a199.936 199.936 0 0 0 92.416-54.4c15.168-15.488 27.904-33.28 37.952-53.312a233.088 233.088 0 0 0 25.472-104.96z" p-id="3497" fill="#bfcbd9"></path><path d="M747.712 808.704c48.96 0 97.92 0.128 146.88-0.064 14.208-0.064 24.96 13.76 24.96 26.112-0.064 15.232-10.56 27.712-25.152 27.776-97.92 0.128-195.84 0.256-293.76-0.128-16.384-0.064-24.704-12.096-24.832-27.136-0.064-13.76 8.64-26.176 24-26.304 49.344-0.512 98.624-0.256 147.904-0.256z m0.512 110.016c48.96 0 97.92 0.128 146.816-0.128 11.392-0.064 22.4 9.28 24.384 23.488a26.624 26.624 0 0 1-27.776 30.4l-288.512 0.064c-15.104 0-25.024-9.344-27.584-26.368-1.344-8.896 8.384-24.064 16.896-26.24a43.136 43.136 0 0 1 9.472-1.216c48.768-0.064 97.536 0 146.304 0z m-0.704-166.144h-145.344c-14.528 0-24.32-9.152-26.624-26.176-1.344-9.92 8.192-23.936 17.792-26.432a36.608 36.608 0 0 1 9.472-1.216h292.224c12.992 0 23.936 11.84 24.448 26.816 0.512 13.696-11.52 26.944-24.128 27.008h-147.84z" p-id="3498" fill="#bfcbd9"></path></svg>