<?xml version="1.0" standalone="no"?><!DOCTYPE svg PUBLIC "-//W3C//DTD SVG 1.1//EN" "http://www.w3.org/Graphics/SVG/1.1/DTD/svg11.dtd"><svg t="1562030150853" class="icon" viewBox="0 0 1024 1024" version="1.1" xmlns="http://www.w3.org/2000/svg" p-id="734" xmlns:xlink="http://www.w3.org/1999/xlink" width="200" height="200"><defs><style type="text/css"></style></defs><path d="M650.699034 531.208828C737.28 482.480552 795.753931 389.826207 795.753931 283.895172c0-156.495448-127.399724-283.895172-283.895172-283.895172-156.354207 0-283.61269 127.399724-283.61269 283.895172 0 106.213517 58.615172 198.726621 145.196138 247.313656-199.856552 59.886345-346.041379 245.336276-346.041379 464.401655 0 15.677793 12.711724 28.389517 28.389517 28.389517 15.677793 0 28.389517-12.711724 28.389517-28.389517 0-235.873103 191.947034-427.961379 427.961379-427.96138 235.873103 0 427.961379 191.947034 427.96138 427.96138 0 15.677793 12.711724 28.389517 28.389517 28.389517 15.677793 0 28.389517-12.711724 28.389517-28.389517-0.141241-219.206621-146.326069-404.51531-346.182621-464.401655zM285.025103 283.895172c0-125.139862 101.835034-226.974897 226.974897-226.974896S738.974897 158.75531 738.974897 283.895172s-101.835034 226.974897-226.974897 226.974897c-125.139862-0.141241-226.974897-101.976276-226.974897-226.974897z m0 0" p-id="735" fill="#bfbfbf"></path></svg>