<?xml version="1.0" standalone="no"?><!DOCTYPE svg PUBLIC "-//W3C//DTD SVG 1.1//EN" "http://www.w3.org/Graphics/SVG/1.1/DTD/svg11.dtd"><svg t="1564975582626" class="icon" viewBox="0 0 1024 1024" version="1.1" xmlns="http://www.w3.org/2000/svg" p-id="18660" xmlns:xlink="http://www.w3.org/1999/xlink" width="200" height="200"><defs><style type="text/css"></style></defs><path d="M798.966 741.559c0-95.42-81.887-202.405-178.561-245.623 46.925-32.917 77.605-87.414 77.605-149.086 0-100.512-81.482-181.993-181.993-181.993s-181.993 81.482-181.993 181.993c0 62.132 31.142 116.981 78.661 149.818-95.39 44.595-174.736 160.544-174.736 242.276-0.001 152.26 561.015 152.26 561.015 2.615z" p-id="18661" fill="#ab6df3"></path><path d="M839.040 479.339c36.532-25.627 60.418-68.054 60.418-116.066 0-78.251-63.435-141.685-141.685-141.685-19.904 0-38.845 4.112-56.031 11.52 24.979 31.158 39.932 70.703 39.932 113.745 0 61.671-30.681 116.169-77.605 149.086 96.674 43.218 178.561 150.203 178.561 245.623 0 3.603-0.333 7.118-0.967 10.548 75.93-10.987 136.394-38.201 136.394-81.546 0-74.288-63.751-157.579-139.014-191.225z" p-id="18662" fill="#ab6df3"></path><path d="M194.289 738.944c0-81.732 79.346-197.681 174.736-242.276-47.519-32.836-78.661-87.685-78.661-149.818 0-43.844 15.507-84.066 41.333-115.485-16.052-6.313-33.534-9.78-51.826-9.78-78.251 0-141.685 63.435-141.685 141.685 0 48.371 24.245 91.073 61.239 116.636-74.263 34.718-136.036 124.988-136.036 188.618 0 43.279 58.225 70.752 132.154 82.527-0.811-3.924-1.253-7.956-1.253-12.109z" p-id="18663" fill="#ab6df3"></path></svg>